<?xml version="1.0" encoding="UTF-8" standalone="no"?>
<!-- Created with Inkscape (http://www.inkscape.org/) -->

<svg
   xmlns:dc="http://purl.org/dc/elements/1.1/"
   xmlns:cc="http://creativecommons.org/ns#"
   xmlns:rdf="http://www.w3.org/1999/02/22-rdf-syntax-ns#"
   xmlns:svg="http://www.w3.org/2000/svg"
   xmlns="http://www.w3.org/2000/svg"
   xmlns:sodipodi="http://sodipodi.sourceforge.net/DTD/sodipodi-0.dtd"
   xmlns:inkscape="http://www.inkscape.org/namespaces/inkscape"
   width="130"
   height="55"
   viewBox="0 0 130 55"
   id="svg2"
   version="1.1"
   inkscape:version="0.91 r13725"
   sodipodi:docname="credits.svg">
  <defs
     id="defs4" />
  <sodipodi:namedview
     id="base"
     pagecolor="#ffffff"
     bordercolor="#666666"
     borderopacity="1.0"
     inkscape:pageopacity="0.0"
     inkscape:pageshadow="2"
     inkscape:zoom="4.5290672"
     inkscape:cx="93.24218"
     inkscape:cy="28.468919"
     inkscape:document-units="px"
     inkscape:current-layer="layer1"
     showgrid="false"
     inkscape:window-width="1366"
     inkscape:window-height="705"
     inkscape:window-x="-8"
     inkscape:window-y="-8"
     inkscape:window-maximized="1"
     units="px" />
  <metadata
     id="metadata7">
    <rdf:RDF>
      <cc:Work
         rdf:about="">
        <dc:format>image/svg+xml</dc:format>
        <dc:type
           rdf:resource="http://purl.org/dc/dcmitype/StillImage" />
        <dc:title />
      </cc:Work>
    </rdf:RDF>
  </metadata>
  <g
     inkscape:label="Layer 1"
     inkscape:groupmode="layer"
     id="layer1"
     transform="translate(0,-997.36216)">
    <rect
       style="fill:#ffff00;stroke:none"
       id="rect3389"
       width="122.55563"
       height="46.925823"
       x="3.8786805"
       y="1001.3692" />
    <path
       style="fill:#000000;stroke:#ffffff"
       d="m 5.029336,997.36216 0,2.46461 -2.679782,0 0,2.61413 -2.349554,0 0,44.3427 2.349554,0 0,3.114 2.679782,0 0,2.4646 120.255504,0 0,-2.4646 2.35063,0 0,-3.114 2.36453,0 0,-44.3427 -2.36453,0 0,-2.61413 -2.35063,0 0,-2.46461 z m 2.680313,5.09384 114.565731,0 0,2.9578 2.83766,0 0,38.8967 -2.83766,0 0,2.9579 -114.565731,0 0,-2.9579 -2.822676,0 0,-38.8967 2.822676,0 z"
       id="rect3349"
       inkscape:connector-curvature="0"
       sodipodi:nodetypes="cccccccccccccccccccccccccccccccccc" />
    <text
       xml:space="preserve"
       style="font-style:normal;font-weight:normal;font-size:29.24073792px;line-height:125%;font-family:sans-serif;letter-spacing:0px;word-spacing:0px;fill:#000000;fill-opacity:1;stroke:none;stroke-width:1px;stroke-linecap:butt;stroke-linejoin:miter;stroke-opacity:1"
       x="10.147472"
       y="1024.5223"
       id="text4146"
       sodipodi:linespacing="125%"
       transform="scale(0.99091411,1.0091692)"><tspan
         sodipodi:role="line"
         id="tspan4148"
         x="10.147472"
         y="1024.5223"
         style="font-style:normal;font-variant:normal;font-weight:normal;font-stretch:normal;font-family:ArcadeClassic;-inkscape-font-specification:ArcadeClassic">CREDITS</tspan></text>
  </g>
</svg>
