<?xml version="1.0" encoding="UTF-8" standalone="no"?>
<!-- Created with Inkscape (http://www.inkscape.org/) -->

<svg
   xmlns:dc="http://purl.org/dc/elements/1.1/"
   xmlns:cc="http://creativecommons.org/ns#"
   xmlns:rdf="http://www.w3.org/1999/02/22-rdf-syntax-ns#"
   xmlns:svg="http://www.w3.org/2000/svg"
   xmlns="http://www.w3.org/2000/svg"
   xmlns:sodipodi="http://sodipodi.sourceforge.net/DTD/sodipodi-0.dtd"
   xmlns:inkscape="http://www.inkscape.org/namespaces/inkscape"
   width="183.562"
   height="113.087"
   viewBox="0 0 183.562 113.08699"
   id="svg4138"
   version="1.1"
   inkscape:version="0.91 r13725"
   sodipodi:docname="logo.svg">
  <defs
     id="defs4140" />
  <sodipodi:namedview
     id="base"
     pagecolor="#ffffff"
     bordercolor="#666666"
     borderopacity="1.0"
     inkscape:pageopacity="0.0"
     inkscape:pageshadow="2"
     inkscape:zoom="2.5040769"
     inkscape:cx="10.981045"
     inkscape:cy="77.875704"
     inkscape:document-units="px"
     inkscape:current-layer="layer1"
     showgrid="false"
     units="px"
     inkscape:window-width="1366"
     inkscape:window-height="706"
     inkscape:window-x="-8"
     inkscape:window-y="-8"
     inkscape:window-maximized="1" />
  <metadata
     id="metadata4143">
    <rdf:RDF>
      <cc:Work
         rdf:about="">
        <dc:format>image/svg+xml</dc:format>
        <dc:type
           rdf:resource="http://purl.org/dc/dcmitype/StillImage" />
        <dc:title></dc:title>
      </cc:Work>
    </rdf:RDF>
  </metadata>
  <g
     inkscape:label="Layer 1"
     inkscape:groupmode="layer"
     id="layer1"
     transform="translate(0,-939.27516)">
    <path
       style="fill:#ffffff"
       d="m 19.322321,1028.417 0,-7.2277 6.038214,0 6.038226,0 0,7.2277 0,7.2278 4.830582,0 4.830572,0 0,-2.4093 c 0,-2.4092 0,-2.4092 2.415285,-2.4092 l 2.415298,0 0,-6.0231 0,-6.0231 2.415286,0 2.415297,0 0,-14.4555 0,-14.45554 -6.038237,0 -6.038215,0 0,2.40928 0,2.40926 -3.622928,0 -3.62294,0 0,-2.40926 0,-2.40928 -4.830583,0 -4.830572,0 0,2.40928 0,2.40926 -4.830583,0 -4.830571,0 0,-2.40926 0,-2.40928 -6.0382262,0 -6.0382258,0 0,14.45554 0,14.4555 2.4152858,0 2.4152971,0 0,6.0231 0,6.0231 2.4152856,0 c 2.4152858,0 2.4152858,0 2.4152858,2.4092 l 0,2.4093 4.8305827,0 4.830584,0 z m -9.6611667,-8.4323 0,-6.0231 -2.4152858,0 -2.4152856,0 0,-9.637 0,-9.637 3.6229285,0 3.6229406,0 0,2.40918 c 0,2.4093 0,2.4093 2.415285,2.4093 l 2.415286,0 0,3.61392 0,3.6139 2.415298,0 2.415285,0 0,-6.0231 0,-6.0232 4.830572,0 4.830583,0 0,6.0232 0,6.0231 2.415285,0 2.415297,0 0,-3.6139 0,-3.61392 2.415286,0 c 2.415286,0 2.415286,0 2.415286,-2.4093 0,-2.40918 0,-2.40918 2.415285,-2.40918 l 2.415298,0 0,9.637 0,9.637 -2.415298,0 -2.415285,0 0,6.0231 0,6.0231 -2.415286,0 -2.415286,0 0,-4.8185 0,-4.8184 -10.868808,0 -10.868798,0 0,4.8184 0,4.8185 -2.415285,0 -2.4152977,0 z m 60.3822347,10.8416 0,-4.8185 2.415286,0 2.415297,0 0,4.8185 0,4.8185 7.245869,0 7.245868,0 0,-15.6601 0,-15.6601 -2.415296,0 -2.415286,0 0,-4.81852 0,-4.81848 -2.415286,0 c -2.415298,0 -2.415298,0 -2.415298,-2.40926 l 0,-2.40928 -7.245868,0 -7.245857,0 0,2.40928 c 0,2.40926 0,2.40926 -2.415297,2.40926 l -2.415286,0 0,4.81848 0,4.81852 -2.415286,0 -2.415297,0 0,15.6601 0,15.6601 7.245869,0 7.245868,0 z m -9.661154,-13.2509 0,-13.2508 2.415286,0 2.415297,0 0,-4.81852 0,-4.81848 7.245857,0 7.245868,0 0,4.81848 0,4.81852 2.415298,0 2.415286,0 0,13.2508 0,13.2509 -2.415286,0 -2.415298,0 0,-4.8185 0,-4.8185 -7.245868,0 -7.245857,0 0,4.8185 0,4.8185 -2.415297,0 -2.415286,0 z m 16.907023,-8.4323 0,-4.8185 -4.830583,0 -4.830571,0 0,4.8185 0,4.8185 4.830571,0 4.830583,0 z m 31.398772,24.0924 c 0,-2.4092 0,-2.4092 2.41528,-2.4092 2.4153,0 2.4153,0 2.4153,2.4092 l 0,2.4093 24.15289,0 24.15289,0 0,-2.4093 c 0,-2.4092 0,-2.4092 2.41528,-2.4092 l 2.4153,0 0,-12.0462 0,-12.0462 -2.4153,0 c -2.01273,0 -2.41528,-0.2008 -2.41528,-1.2047 0,-1.16 0.40255,-1.2046 10.8688,-1.2046 l 10.86881,0 0,-7.22782 0,-7.22772 -18.11468,0 -18.11467,0 0,2.40928 c 0,2.40926 0,2.40926 -2.41529,2.40926 l -2.41528,0 0,9.637 0,9.637 2.41528,0 c 2.41529,0 2.41529,0 2.41529,2.4093 l 0,2.4092 -13.28409,0 -13.28409,0 0,-2.4092 c 0,-2.4093 0,-2.4093 2.41529,-2.4093 l 2.41528,0 0,-9.637 0,-9.637 -2.41528,0 c -2.41529,0 -2.41529,0 -2.41529,-2.40926 l 0,-2.40928 -13.2841,0 -13.284089,0 0,22.88784 0,22.8879 7.245869,0 7.24588,0 z m -9.661166,-20.4786 0,-18.0693 10.868796,0 10.86881,0 0,9.637 0,9.637 -2.41529,0 c -2.41529,0 -2.41529,0 -2.41529,2.4093 0,2.4092 0,2.4092 2.41529,2.4092 2.41529,0 2.41529,0 2.41529,2.4092 l 0,2.4092 15.69939,0 15.69937,0 0,-4.8184 0,-4.8185 -2.41529,0 -2.41529,0 0,-9.637 0,-9.637 15.69938,0 15.69938,0 0,2.40918 0,2.4093 -10.8688,0 -10.86879,0 0,3.61392 0,3.6139 2.41529,0 2.41528,0 0,12.0462 0,12.0462 -24.15289,0 -24.15289,0 0,-2.4093 c 0,-2.4092 0,-2.4092 -2.4153,-2.4092 -2.41528,0 -2.41528,0 -2.41528,-2.4093 0,-2.4092 0,-2.4092 -2.4153,-2.4092 l -2.41529,0 0,4.8185 0,4.8185 -2.41529,0 -2.415286,0 z m 16.907026,-9.6369 0,-3.61392 -6.03823,0 -6.03822,0 0,3.61392 0,3.6139 6.03822,0 6.03823,0 z M 36.229343,982.64133 c 0,-2.00771 0.201264,-2.40925 1.207644,-2.40925 1.162922,0 1.207642,-0.40153 1.207642,-10.8417 l 0,-10.8416 -2.415286,0 c -2.415297,0 -2.415297,0 -2.415297,-2.40925 l 0,-2.40924 9.661154,0 9.661166,0 0,15.66009 0,15.6602 8.453511,0 8.453512,0 0,-15.6602 0,-15.66009 10.868809,0 10.868797,0 0,15.66009 0,15.6602 7.245869,0 7.245866,0 0,-4.8185 0,-4.81853 2.4153,0 2.41528,0 0,4.81853 0,4.8185 7.24587,0 7.24586,0 0,-15.6602 0,-15.66009 -2.41528,0 -2.41529,0 0,-3.61387 0,-3.61387 -2.41529,0 c -2.41529,0 -2.41529,0 -2.41529,-2.40926 l 0,-2.40923 -7.24586,0 -7.24588,0 0,2.40923 c 0,2.40926 0,2.40926 -2.415286,2.40926 l -2.415286,0 0,3.61387 0,3.61387 -2.415297,0 -2.415286,0 0,-7.22774 0,-7.22773 -36.229343,0 c -35.826791,0 -36.229331,0.0134 -36.229331,1.20461 0,0.80308 -0.402552,1.20463 -1.207655,1.20463 -1.167386,0 -1.207643,0.40154 -1.207643,12.04623 l 0,12.04622 2.415298,0 c 2.415285,0 2.415285,0 2.415285,2.40926 l 0,2.40924 -10.868808,0 -10.868798,0 0,7.22783 0,7.22774 18.114666,0 18.114677,0 z m -31.3987601,-4.81849 0,-2.40929 10.8687971,0 10.868798,0 0,-4.81854 0,-4.8185 -2.415286,0 -2.415286,0 0,-10.8416 0,-10.84162 33.814046,0 33.814057,0 0,2.40926 0,2.40925 -12.076451,0 -12.07644,0 0,15.6601 0,15.66018 -3.622941,0 -3.622928,0 0,-15.66018 0,-15.6601 -14.491749,0 -14.491724,0 0,4.81849 0,4.81849 2.415285,0 2.415285,0 0,10.8416 0,10.8417 -14.491725,0 -14.4917381,0 z m 91.7809951,-10.8417 0,-13.25085 2.415286,0 2.415286,0 0,-3.61387 0,-3.61387 7.24588,0 7.24586,0 0,3.61387 0,3.61387 2.41529,0 2.41529,0 0,13.25085 0,13.25094 -2.41529,0 -2.41529,0 0,-4.81853 0,-4.81854 -7.24586,0 -7.24588,0 0,4.81854 0,4.81853 -2.415286,0 -2.415286,0 z m 16.907032,-8.43236 0,-4.81849 -4.83058,0 -4.83059,0 0,4.81849 0,4.81849 4.83059,0 4.83058,0 z m 31.39875,24.09255 c 0,-2.40925 0,-2.40925 2.41529,-2.40925 2.41529,0 2.41529,0 2.41529,2.40925 l 0,2.40925 16.90703,0 16.90703,0 0,-7.22774 0,-7.22783 -14.49174,0 -14.49175,0 0,-2.40924 c 0,-2.40926 0,-2.40926 2.41531,-2.40926 l 2.41529,0 0,-9.63698 0,-9.63698 -2.41529,0 c -2.41531,0 -2.41531,0 -2.41531,-2.40926 l 0,-2.40923 -12.07643,0 -12.07646,0 0,21.68321 0,21.68331 7.24588,0 7.24586,0 z m -9.66115,-19.27406 0,-16.86472 9.66115,0 9.66115,0 0,8.43236 0,8.43236 -2.41528,0 -2.41529,0 0,3.61387 0,3.61387 2.41529,0 c 2.41528,0 2.41528,0 2.41528,2.40924 l 0,2.4093 12.07646,0 12.07644,0 0,2.40929 0,2.40924 -14.49174,0 -14.49173,0 0,-2.40924 c 0,-2.40929 0,-2.40929 -2.41529,-2.40929 -2.01273,0 -2.41529,-0.20078 -2.41529,-1.20463 0,-1.0039 -0.40254,-1.20467 -2.41528,-1.20467 l -2.4153,0 0,3.61397 0,3.61386 -2.41528,0 -2.41529,0 z m 14.49173,-8.43236 0,-3.61387 -4.83058,0 -4.83058,0 0,3.61387 0,3.61387 4.83058,0 4.83058,0 z"
       id="path4697"
       inkscape:connector-curvature="0"
       sodipodi:nodetypes="ccccccccsscccccccccccccccccccccccccccccccssccccccccccccsscccccccccccccccsssccccccccccccccccccccccccccccccccsscccssccccccccccccccccccccccccccccccccccccccccccccssscccsscccssscccccsscccsscccsscccsscccccccsccccccsssscccccccccccccccccccccccsssscccccccccccccccssscsscccccccccccccccccccccccccccccsscccsscccccccsssscsscccccccscccccccccccccccccccccccccccccccccccccccccccccccccccccccccccccccccccssscccccccsscccsscccccccsccccccccccsscccccccssssccccccccccccccc" />
    <g
       transform="matrix(1.1111793,0,0,1.1845146,0,-154.29327)"
       style="font-style:normal;font-weight:normal;font-size:36.74652863px;line-height:125%;font-family:sans-serif;letter-spacing:0px;word-spacing:0px;fill:#ffff00;fill-opacity:1;stroke:none;stroke-width:1px;stroke-linecap:butt;stroke-linejoin:miter;stroke-opacity:1"
       id="text4134">
      <path
         d="m 0,1018.5853 0,-8.3994 q 0.01682122,-0.1009 0.10092736,-0.1009 l 1.11580804,0 q 0.1009273,0.017 0.09532,0.1009 l 0,1.1158 1.115808,0 q 0.1009274,0.017 0.1009274,0.095 l 0,1.1158 1.115808,0 0,-1.1158 q 0.016821,-0.101 0.09532,-0.095 l 1.115808,0 0,-1.1158 q 0.016821,-0.1009 0.1009274,-0.1009 l 1.115808,0 q 0.1009273,0.017 0.09532,0.1009 l 0,8.3994 q 0,0.101 -0.09532,0.095 l -1.115808,0 q -0.1009274,0 -0.1009274,-0.095 l 0,-5.9715 -1.115808,0 0,2.3269 q 0,0.101 -0.09532,0.101 l -1.115808,0 q -0.1009274,0 -0.1009274,-0.101 l 0,-2.3269 -1.115808,0 0,5.9715 q 0,0.101 -0.09532,0.095 l -1.11580804,0 Q 0,1018.6807 0,1018.5853 Z"
         style="font-style:normal;font-variant:normal;font-weight:normal;font-stretch:normal;font-size:11.48329067px;font-family:'LCD Solid';-inkscape-font-specification:'LCD Solid';fill:#ffff00"
         id="path4139"
         inkscape:connector-curvature="0" />
      <path
         d="m 8.2255799,1018.5517 0,-1.1158 q 0.016821,-0.1009 0.1009273,-0.1009 l 1.1158081,0 0,-3.5325 -1.1158081,0 q -0.1009273,0 -0.1009273,-0.1065 l 0,-1.1102 q 0.016821,-0.095 0.1009273,-0.095 l 2.3269368,0 q 0.100927,0.017 0.100927,0.095 l 0,4.7492 1.104594,0 q 0.106534,0.017 0.112141,0.1009 l 0,1.1158 q 0,0.1009 -0.112141,0.095 l -3.5324578,0 q -0.1009273,0 -0.1009273,-0.095 z m 1.2167354,-7.278 0,-1.1158 q 0.011214,-0.095 0.09532,-0.095 l 1.1158087,0 q 0.100927,0.017 0.100927,0.095 l 0,1.1158 q 0,0.1009 -0.100927,0.1009 l -1.1158087,0 q -0.1009273,0 -0.09532,-0.1009 z"
         style="font-style:normal;font-variant:normal;font-weight:normal;font-stretch:normal;font-size:11.48329067px;font-family:'LCD Solid';-inkscape-font-specification:'LCD Solid';fill:#ffff00"
         id="path4141"
         inkscape:connector-curvature="0" />
      <path
         d="m 15.234424,1018.5685 0,-1.1158 q 0.01682,-0.1009 0.09532,-0.1009 l 1.115808,0 0,-5.9603 -1.115808,0 q -0.100928,0 -0.09532,-0.101 l 0,-1.1158 q 0.01121,-0.095 0.09532,-0.095 l 2.332543,0 q 0.100927,0.017 0.09532,0.095 l 0,7.1771 1.110201,0 q 0.106535,0.017 0.106535,0.1009 l 0,1.1158 q 0,0.1009 -0.106535,0.095 l -3.538064,0 q -0.100928,0 -0.09532,-0.095 z"
         style="font-style:normal;font-variant:normal;font-weight:normal;font-stretch:normal;font-size:11.48329067px;font-family:'LCD Solid';-inkscape-font-specification:'LCD Solid';fill:#ffff00"
         id="path4143"
         inkscape:connector-curvature="0" />
      <path
         d="m 22.254484,1018.5685 0,-1.1158 q 0.01682,-0.1009 0.09532,-0.1009 l 1.115808,0 0,-5.9603 -1.115808,0 q -0.100927,0 -0.09532,-0.101 l 0,-1.1158 q 0.01121,-0.095 0.09532,-0.095 l 2.332544,0 q 0.100927,0.017 0.09532,0.095 l 0,7.1771 1.110201,0 q 0.106534,0.017 0.106534,0.1009 l 0,1.1158 q 0,0.1009 -0.106534,0.095 l -3.538065,0 q -0.100927,0 -0.09532,-0.095 z"
         style="font-style:normal;font-variant:normal;font-weight:normal;font-stretch:normal;font-size:11.48329067px;font-family:'LCD Solid';-inkscape-font-specification:'LCD Solid';fill:#ffff00"
         id="path4145"
         inkscape:connector-curvature="0" />
      <path
         d="m 28.097056,1017.3686 0,-3.5044 q 0.01682,-0.1009 0.100927,-0.095 l 1.104594,0 0,-1.1102 q 0.01121,-0.095 0.100927,-0.095 l 3.504423,0 q 0.100927,0.017 0.09532,0.095 l 0,1.1102 1.110201,0 q 0.100927,0.01 0.09532,0.095 l 0,2.3101 q 0,0.1009 -0.09532,0.095 l -4.709944,0 0,1.099 3.504423,0 q 0.100927,0.017 0.09532,0.1009 l 0,1.1046 q 0,0.101 -0.09532,0.101 l -3.504423,0 q -0.100927,0 -0.100927,-0.101 l 0,-1.1046 -1.104594,0 q -0.100927,0 -0.100927,-0.1009 z m 1.306448,-2.4054 3.504423,0 0,-1.099 -3.504423,0 0,1.099 z"
         style="font-style:normal;font-variant:normal;font-weight:normal;font-stretch:normal;font-size:11.48329067px;font-family:'LCD Solid';-inkscape-font-specification:'LCD Solid';fill:#ffff00"
         id="path4147"
         inkscape:connector-curvature="0" />
      <path
         d="m 35.111506,1018.5573 0,-5.9042 q 0.01121,-0.101 0.09532,-0.101 l 1.098986,0 q 0.106535,0.017 0.106535,0.101 l 0,1.0989 1.098987,0 0,-1.0989 q 0.01682,-0.101 0.100927,-0.101 l 2.298901,0 q 0.106534,0.017 0.106534,0.101 l 0,1.0989 1.098987,0 q 0.100928,0.017 0.09532,0.1066 l 0,4.6987 q 0,0.1009 -0.09532,0.1009 l -1.098987,0 q -0.106534,0 -0.106534,-0.1009 l 0,-4.6987 -2.298901,0 0,1.099 q 0,0.1009 -0.100927,0.1009 l -1.098987,0 0,3.4988 q 0,0.1009 -0.106535,0.1009 l -1.098986,0 q -0.100928,0 -0.09532,-0.1009 z"
         style="font-style:normal;font-variant:normal;font-weight:normal;font-stretch:normal;font-size:11.48329067px;font-family:'LCD Solid';-inkscape-font-specification:'LCD Solid';fill:#ffff00"
         id="path4149"
         inkscape:connector-curvature="0" />
      <path
         d="m 43.325875,1018.5517 0,-1.1158 q 0.01682,-0.1009 0.100927,-0.1009 l 1.115808,0 0,-3.5325 -1.115808,0 q -0.100927,0 -0.100927,-0.1065 l 0,-1.1102 q 0.01682,-0.095 0.100927,-0.095 l 2.326937,0 q 0.100927,0.017 0.100927,0.095 l 0,4.7492 1.104594,0 q 0.106534,0.017 0.112141,0.1009 l 0,1.1158 q 0,0.1009 -0.112141,0.095 l -3.532458,0 q -0.100927,0 -0.100927,-0.095 z m 1.216735,-7.278 0,-1.1158 q 0.01121,-0.095 0.09532,-0.095 l 1.115808,0 q 0.100927,0.017 0.100927,0.095 l 0,1.1158 q 0,0.1009 -0.100927,0.1009 l -1.115808,0 q -0.100928,0 -0.09532,-0.1009 z"
         style="font-style:normal;font-variant:normal;font-weight:normal;font-stretch:normal;font-size:11.48329067px;font-family:'LCD Solid';-inkscape-font-specification:'LCD Solid';fill:#ffff00"
         id="path4151"
         inkscape:connector-curvature="0" />
      <path
         d="m 49.140411,1017.363 0,-4.7043 q 0.01682,-0.095 0.100928,-0.095 l 1.098987,0 q 0.106534,0.017 0.106534,0.095 l 0,4.7043 2.298901,0 0,-1.099 q 0.01682,-0.1009 0.09532,-0.1009 l 1.098987,0 0,-3.5044 q 0.01682,-0.101 0.106534,-0.095 l 1.098987,0 q 0.100928,0.017 0.100928,0.095 l 0,5.9098 q 0,0.1009 -0.100928,0.095 l -1.098987,0 q -0.106534,0 -0.106534,-0.095 l 0,-1.099 -1.098987,0 0,1.099 q 0,0.1009 -0.09532,0.095 l -2.298901,0 q -0.106534,0 -0.106534,-0.095 l 0,-1.099 -1.098987,0 q -0.100928,0 -0.100928,-0.1065 z"
         style="font-style:normal;font-variant:normal;font-weight:normal;font-stretch:normal;font-size:11.48329067px;font-family:'LCD Solid';-inkscape-font-specification:'LCD Solid';fill:#ffff00"
         id="path4153"
         inkscape:connector-curvature="0" />
      <path
         d="m 56.17729,1018.5573 0,-5.9042 q 0.01682,-0.101 0.100928,-0.101 l 2.304508,0 q 0.100927,0.017 0.09532,0.101 l 0,1.0989 1.104594,0 0,-1.0989 q 0.01682,-0.101 0.09532,-0.101 l 1.098987,0 q 0.106534,0.017 0.106534,0.101 l 0,1.0989 1.098987,0 q 0.100928,0.017 0.100928,0.1066 l 0,4.6987 q 0,0.1009 -0.100928,0.1009 l -1.098987,0 q -0.106534,0 -0.106534,-0.1009 l 0,-4.6987 -1.098987,0 0,2.2989 q 0,0.1009 -0.09532,0.095 l -1.104594,0 q -0.100927,0 -0.09532,-0.095 l 0,-2.2989 -1.098987,0 0,4.6987 q 0,0.1009 -0.106535,0.1009 l -1.098986,0 q -0.100928,0 -0.100928,-0.1009 z"
         style="font-style:normal;font-variant:normal;font-weight:normal;font-stretch:normal;font-size:11.48329067px;font-family:'LCD Solid';-inkscape-font-specification:'LCD Solid';fill:#ffff00"
         id="path4155"
         inkscape:connector-curvature="0" />
      <path
         d="m 70.155728,1018.5685 0,-8.4106 q 0.01121,-0.095 0.09532,-0.095 l 5.971536,0 q 0.106534,0.017 0.106534,0.095 l 0,1.1158 q 0,0.1009 -0.106534,0.1009 l -4.754801,0 0,2.327 3.543672,0 q 0.106535,0.017 0.106535,0.1065 l 0,1.1102 q 0,0.1065 -0.106535,0.1065 l -3.543672,0 0,3.5437 q 0,0.1009 -0.100927,0.095 l -1.115808,0 q -0.100927,0 -0.09532,-0.095 z"
         style="font-style:normal;font-variant:normal;font-weight:normal;font-stretch:normal;font-size:11.48329067px;font-family:'LCD Solid';-inkscape-font-specification:'LCD Solid';fill:#ffff00"
         id="path4157"
         inkscape:connector-curvature="0" />
      <path
         d="m 77.248677,1017.3686 0,-1.1046 q 0.01682,-0.1009 0.09532,-0.1009 l 1.110201,0 0,-1.099 q 0.01682,-0.1009 0.09532,-0.1009 l 3.510029,0 0,-1.1046 -3.510029,0 q -0.100927,0 -0.09532,-0.101 l 0,-1.1045 q 0.01121,-0.101 0.09532,-0.101 l 3.510029,0 q 0.100928,0.017 0.100928,0.101 l 0,1.1045 1.110201,0 q 0.100927,0.017 0.09532,0.101 l 0,4.7155 q 0,0.101 -0.09532,0.101 l -4.721158,0 q -0.100927,0 -0.09532,-0.101 l 0,-1.1046 -1.110201,0 q -0.100928,0 -0.09532,-0.1009 z m 1.300842,0 3.510029,0 0,-1.1046 -3.510029,0 0,1.1046 z"
         style="font-style:normal;font-variant:normal;font-weight:normal;font-stretch:normal;font-size:11.48329067px;font-family:'LCD Solid';-inkscape-font-specification:'LCD Solid';fill:#ffff00"
         id="path4159"
         inkscape:connector-curvature="0" />
      <path
         d="m 85.435014,1018.5685 0,-1.1158 q 0.01682,-0.1009 0.09532,-0.1009 l 1.115808,0 0,-5.9603 -1.115808,0 q -0.100928,0 -0.09532,-0.101 l 0,-1.1158 q 0.01122,-0.095 0.09532,-0.095 l 2.332543,0 q 0.100928,0.017 0.09532,0.095 l 0,7.1771 1.110201,0 q 0.106535,0.017 0.106535,0.1009 l 0,1.1158 q 0,0.1009 -0.106535,0.095 l -3.538064,0 q -0.100928,0 -0.09532,-0.095 z"
         style="font-style:normal;font-variant:normal;font-weight:normal;font-stretch:normal;font-size:11.48329067px;font-family:'LCD Solid';-inkscape-font-specification:'LCD Solid';fill:#ffff00"
         id="path4161"
         inkscape:connector-curvature="0" />
      <path
         d="m 91.277586,1017.363 0,-3.5044 q 0.01682,-0.101 0.100928,-0.101 l 1.104594,0 0,-1.1045 q 0.01121,-0.101 0.100927,-0.101 l 3.504422,0 q 0.100927,0.017 0.09532,0.101 l 0,1.1045 q 0,0.101 -0.09532,0.101 l -3.504422,0 0,3.5044 3.504422,0 0,-1.099 q 0.01682,-0.1009 0.09532,-0.1009 l 1.110201,0 q 0.100928,0.017 0.09532,0.1009 l 0,1.099 q 0,0.1009 -0.09532,0.095 l -1.110201,0 0,1.1102 q 0,0.1009 -0.09532,0.095 l -3.504422,0 q -0.100927,0 -0.100927,-0.095 l 0,-1.1102 -1.104594,0 q -0.100928,0 -0.100928,-0.095 z"
         style="font-style:normal;font-variant:normal;font-weight:normal;font-stretch:normal;font-size:11.48329067px;font-family:'LCD Solid';-inkscape-font-specification:'LCD Solid';fill:#ffff00"
         id="path4163"
         inkscape:connector-curvature="0" />
      <path
         d="m 98.308858,1017.363 0,-3.4988 q 0.01682,-0.1066 0.09532,-0.1066 l 1.098987,0 0,-1.0989 q 0.01682,-0.095 0.106535,-0.095 l 3.49881,0 q 0.10654,0.017 0.10654,0.095 l 0,1.0989 1.09899,0 q 0.10092,0.017 0.0953,0.1066 l 0,3.4988 q 0,0.1065 -0.0953,0.1065 l -1.09899,0 0,1.099 q 0,0.1009 -0.10654,0.095 l -3.49881,0 q -0.106535,0 -0.106535,-0.095 l 0,-1.099 -1.098987,0 q -0.100927,0 -0.09532,-0.1065 z m 1.300842,0 3.49881,0 0,-3.4988 -3.49881,0 0,3.4988 z"
         style="font-style:normal;font-variant:normal;font-weight:normal;font-stretch:normal;font-size:11.48329067px;font-family:'LCD Solid';-inkscape-font-specification:'LCD Solid';fill:#ffff00"
         id="path4165"
         inkscape:connector-curvature="0" />
      <path
         d="m 105.31209,1018.5573 0,-5.9042 q 0.0112,-0.101 0.0953,-0.101 l 1.09899,0 q 0.10654,0.017 0.10654,0.101 l 0,1.0989 1.09898,0 0,-1.0989 q 0.0168,-0.101 0.10093,-0.101 l 2.2989,0 q 0.10654,0.017 0.10654,0.101 l 0,1.0989 1.09898,0 q 0.10093,0.017 0.0953,0.1066 l 0,4.6987 q 0,0.1009 -0.0953,0.1009 l -1.09898,0 q -0.10654,0 -0.10654,-0.1009 l 0,-4.6987 -2.2989,0 0,1.099 q 0,0.1009 -0.10093,0.1009 l -1.09898,0 0,3.4988 q 0,0.1009 -0.10654,0.1009 l -1.09899,0 q -0.10092,0 -0.0953,-0.1009 z"
         style="font-style:normal;font-variant:normal;font-weight:normal;font-stretch:normal;font-size:11.48329067px;font-family:'LCD Solid';-inkscape-font-specification:'LCD Solid';fill:#ffff00"
         id="path4167"
         inkscape:connector-curvature="0" />
      <path
         d="m 119.36903,1017.3686 0,-1.1046 q 0.0168,-0.1009 0.0953,-0.1009 l 1.1102,0 0,-1.099 q 0.0168,-0.1009 0.0953,-0.1009 l 3.51003,0 0,-1.1046 -3.51003,0 q -0.10092,0 -0.0953,-0.101 l 0,-1.1045 q 0.0112,-0.101 0.0953,-0.101 l 3.51003,0 q 0.10093,0.017 0.10093,0.101 l 0,1.1045 1.1102,0 q 0.10093,0.017 0.0953,0.101 l 0,4.7155 q 0,0.101 -0.0953,0.101 l -4.72116,0 q -0.10092,0 -0.0953,-0.101 l 0,-1.1046 -1.1102,0 q -0.10093,0 -0.0953,-0.1009 z m 1.30084,0 3.51003,0 0,-1.1046 -3.51003,0 0,1.1046 z"
         style="font-style:normal;font-variant:normal;font-weight:normal;font-stretch:normal;font-size:11.48329067px;font-family:'LCD Solid';-inkscape-font-specification:'LCD Solid';fill:#ffff00"
         id="path4169"
         inkscape:connector-curvature="0" />
      <path
         d="m 126.36105,1013.7016 0,-1.1046 q 0.0168,-0.1066 0.10093,-0.1066 l 1.11581,0 0,-2.3325 q 0.0112,-0.095 0.0953,-0.095 l 1.11581,0 q 0.10653,0.017 0.10653,0.095 l 0,2.3325 1.1102,0 q 0.10654,0.017 0.10654,0.1066 l 0,1.1046 q 0,0.1065 -0.10654,0.1065 l -1.1102,0 0,3.5437 2.32133,0 0,-1.1158 q 0.0168,-0.1066 0.10654,-0.1066 l 1.1102,0 q 0.10653,0.017 0.10653,0.1066 l 0,1.1158 q 0,0.1009 -0.10653,0.1009 l -1.1102,0 0,1.1158 q 0,0.1009 -0.10654,0.095 l -2.32133,0 q -0.10653,0 -0.10653,-0.095 l 0,-1.1158 -1.11581,0 q -0.10093,0 -0.0953,-0.1009 l 0,-3.5437 -1.11581,0 q -0.10093,0 -0.10093,-0.1065 z"
         style="font-style:normal;font-variant:normal;font-weight:normal;font-stretch:normal;font-size:11.48329067px;font-family:'LCD Solid';-inkscape-font-specification:'LCD Solid';fill:#ffff00"
         id="path4171"
         inkscape:connector-curvature="0" />
      <path
         d="m 133.38112,1013.7016 0,-1.1046 q 0.0168,-0.1066 0.10093,-0.1066 l 1.1158,0 0,-2.3325 q 0.0112,-0.095 0.0953,-0.095 l 1.11581,0 q 0.10654,0.017 0.10654,0.095 l 0,2.3325 1.1102,0 q 0.10653,0.017 0.10653,0.1066 l 0,1.1046 q 0,0.1065 -0.10653,0.1065 l -1.1102,0 0,3.5437 2.32133,0 0,-1.1158 q 0.0168,-0.1066 0.10653,-0.1066 l 1.1102,0 q 0.10654,0.017 0.10654,0.1066 l 0,1.1158 q 0,0.1009 -0.10654,0.1009 l -1.1102,0 0,1.1158 q 0,0.1009 -0.10653,0.095 l -2.32133,0 q -0.10654,0 -0.10654,-0.095 l 0,-1.1158 -1.11581,0 q -0.10092,0 -0.0953,-0.1009 l 0,-3.5437 -1.1158,0 q -0.10093,0 -0.10093,-0.1065 z"
         style="font-style:normal;font-variant:normal;font-weight:normal;font-stretch:normal;font-size:11.48329067px;font-family:'LCD Solid';-inkscape-font-specification:'LCD Solid';fill:#ffff00"
         id="path4173"
         inkscape:connector-curvature="0" />
      <path
         d="m 140.4292,1017.3686 0,-1.1046 q 0.0168,-0.1009 0.0953,-0.1009 l 1.11021,0 0,-1.099 q 0.0168,-0.1009 0.0953,-0.1009 l 3.51002,0 0,-1.1046 -3.51002,0 q -0.10093,0 -0.0953,-0.101 l 0,-1.1045 q 0.0112,-0.101 0.0953,-0.101 l 3.51002,0 q 0.10093,0.017 0.10093,0.101 l 0,1.1045 1.1102,0 q 0.10093,0.017 0.0953,0.101 l 0,4.7155 q 0,0.101 -0.0953,0.101 l -4.72115,0 q -0.10093,0 -0.0953,-0.101 l 0,-1.1046 -1.11021,0 q -0.10092,0 -0.0953,-0.1009 z m 1.30085,0 3.51002,0 0,-1.1046 -3.51002,0 0,1.1046 z"
         style="font-style:normal;font-variant:normal;font-weight:normal;font-stretch:normal;font-size:11.48329067px;font-family:'LCD Solid';-inkscape-font-specification:'LCD Solid';fill:#ffff00"
         id="path4175"
         inkscape:connector-curvature="0" />
      <path
         d="m 147.43806,1017.363 0,-3.5044 q 0.0168,-0.101 0.10092,-0.101 l 1.1046,0 0,-1.1045 q 0.0112,-0.101 0.10092,-0.101 l 3.50443,0 q 0.10092,0.017 0.0953,0.101 l 0,1.1045 q 0,0.101 -0.0953,0.101 l -3.50443,0 0,3.5044 3.50443,0 0,-1.099 q 0.0168,-0.1009 0.0953,-0.1009 l 1.1102,0 q 0.10092,0.017 0.0953,0.1009 l 0,1.099 q 0,0.1009 -0.0953,0.095 l -1.1102,0 0,1.1102 q 0,0.1009 -0.0953,0.095 l -3.50443,0 q -0.10092,0 -0.10092,-0.095 l 0,-1.1102 -1.1046,0 q -0.10092,0 -0.10092,-0.095 z"
         style="font-style:normal;font-variant:normal;font-weight:normal;font-stretch:normal;font-size:11.48329067px;font-family:'LCD Solid';-inkscape-font-specification:'LCD Solid';fill:#ffff00"
         id="path4177"
         inkscape:connector-curvature="0" />
      <path
         d="m 154.41886,1018.5685 0,-8.3826 q 0.0168,-0.1009 0.10092,-0.1009 l 1.11581,0 q 0.10093,0.017 0.0953,0.1009 l 0,4.7492 1.1102,0 0,-1.1158 q 0.0168,-0.1009 0.10654,-0.1009 l 1.10459,0 0,-1.1046 q 0.0168,-0.1065 0.10093,-0.1065 l 1.11581,0 q 0.10092,0.017 0.0953,0.1065 l 0,1.1046 q 0,0.1009 -0.0953,0.1009 l -1.11581,0 0,1.1158 q 0,0.101 -0.10093,0.095 l -1.10459,0 0,1.1102 1.10459,0 q 0.10093,0.017 0.10093,0.1065 l 0,1.1046 1.11581,0 q 0.10092,0.017 0.0953,0.1009 l 0,1.1158 q 0,0.1009 -0.0953,0.095 l -1.11581,0 q -0.10093,0 -0.10093,-0.095 l 0,-1.1158 -1.10459,0 q -0.10654,0 -0.10654,-0.1009 l 0,-1.1046 -1.1102,0 0,2.3213 q 0,0.1009 -0.0953,0.095 l -1.11581,0 q -0.10092,0 -0.10092,-0.095 z"
         style="font-style:normal;font-variant:normal;font-weight:normal;font-stretch:normal;font-size:11.48329067px;font-family:'LCD Solid';-inkscape-font-specification:'LCD Solid';fill:#ffff00"
         id="path4179"
         inkscape:connector-curvature="0" />
      <path
         d="m 163.87239,1018.5909 0,-1.1158 q 0.0168,-0.1065 0.10093,-0.1065 l 1.11581,0 q 0.10653,0.017 0.10653,0.1065 l 0,1.1158 q 0,0.101 -0.10653,0.101 l -1.11581,0 q -0.10093,0 -0.10093,-0.101 z m 0,-3.6502 0,-4.766 q 0.0168,-0.095 0.10093,-0.095 l 1.11581,0 q 0.10653,0.017 0.10653,0.095 l 0,4.766 q 0,0.101 -0.10653,0.101 l -1.11581,0 q -0.10093,0 -0.10093,-0.101 z"
         style="font-style:normal;font-variant:normal;font-weight:normal;font-stretch:normal;font-size:11.48329067px;font-family:'LCD Solid';-inkscape-font-specification:'LCD Solid';fill:#ffff00"
         id="path4181"
         inkscape:connector-curvature="0" />
    </g>
  </g>
</svg>
