<?xml version="1.0" encoding="UTF-8" standalone="no"?>
<!-- Created with Inkscape (http://www.inkscape.org/) -->

<svg
   xmlns:dc="http://purl.org/dc/elements/1.1/"
   xmlns:cc="http://creativecommons.org/ns#"
   xmlns:rdf="http://www.w3.org/1999/02/22-rdf-syntax-ns#"
   xmlns:svg="http://www.w3.org/2000/svg"
   xmlns="http://www.w3.org/2000/svg"
   xmlns:sodipodi="http://sodipodi.sourceforge.net/DTD/sodipodi-0.dtd"
   xmlns:inkscape="http://www.inkscape.org/namespaces/inkscape"
   width="169.185"
   height="104.23"
   viewBox="0 0 169.185 104.23"
   id="svg4138"
   version="1.1"
   inkscape:version="0.91 r13725"
   sodipodi:docname="logo.svg">
  <defs
     id="defs4140" />
  <sodipodi:namedview
     id="base"
     pagecolor="#ffffff"
     bordercolor="#666666"
     borderopacity="1.0"
     inkscape:pageopacity="0.0"
     inkscape:pageshadow="2"
     inkscape:zoom="2.5040769"
     inkscape:cx="70.683684"
     inkscape:cy="77.875704"
     inkscape:document-units="px"
     inkscape:current-layer="layer1"
     showgrid="false"
     units="px"
     inkscape:window-width="1366"
     inkscape:window-height="706"
     inkscape:window-x="-8"
     inkscape:window-y="-8"
     inkscape:window-maximized="1" />
  <metadata
     id="metadata4143">
    <rdf:RDF>
      <cc:Work
         rdf:about="">
        <dc:format>image/svg+xml</dc:format>
        <dc:type
           rdf:resource="http://purl.org/dc/dcmitype/StillImage" />
        <dc:title></dc:title>
      </cc:Work>
    </rdf:RDF>
  </metadata>
  <g
     inkscape:label="Layer 1"
     inkscape:groupmode="layer"
     id="layer1"
     transform="translate(0,-948.13216)">
    <path
       style="fill:#ffffff"
       d="m 17.808955,1030.2924 0,-6.6616 5.565288,0 5.565299,0 0,6.6616 0,6.6617 4.452241,0 4.452231,0 0,-2.2206 c 0,-2.2205 0,-2.2205 2.226115,-2.2205 l 2.226126,0 0,-5.5514 0,-5.5514 2.226116,0 2.226125,0 0,-13.3233 0,-13.32336 -5.565309,0 -5.565288,0 0,2.22058 0,2.22057 -3.339173,0 -3.339184,0 0,-2.22057 0,-2.22058 -4.452241,0 -4.452231,0 0,2.22058 0,2.22057 -4.452241,0 -4.452231,0 0,-2.22057 0,-2.22058 -5.565299,0 -5.565299,0 0,13.32336 0,13.3233 2.2261154,0 2.2261259,0 0,5.5514 0,5.5514 2.2261153,0 c 2.2261154,0 2.2261154,0 2.2261154,2.2205 l 0,2.2206 4.452241,0 4.452242,0 z m -8.904483,-7.7719 0,-5.5514 -2.2261154,0 -2.2261153,0 0,-8.8822 0,-8.88221 3.339173,0 3.3391837,0 0,2.22051 c 0,2.2206 0,2.2206 2.226115,2.2206 l 2.226116,0 0,3.3308 0,3.3309 2.226126,0 2.226115,0 0,-5.5514 0,-5.55141 4.452231,0 4.452241,0 0,5.55141 0,5.5514 2.226115,0 2.226126,0 0,-3.3309 0,-3.3308 2.226116,0 c 2.226115,0 2.226115,0 2.226115,-2.2206 0,-2.22051 0,-2.22051 2.226115,-2.22051 l 2.226126,0 0,8.88221 0,8.8822 -2.226126,0 -2.226115,0 0,5.5514 0,5.5514 -2.226115,0 -2.226116,0 0,-4.4411 0,-4.4411 -10.01754,0 -10.01753,0 0,4.4411 0,4.4411 -2.226115,0 -2.226126,0 z m 55.652968,9.9925 0,-4.4411 2.226116,0 2.226126,0 0,4.4411 0,4.4411 6.678356,0 6.678357,0 0,-14.4336 0,-14.4336 -2.226126,0 -2.226115,0 0,-4.4411 0,-4.44111 -2.226116,0 c -2.226126,0 -2.226126,0 -2.226126,-2.22057 l 0,-2.22058 -6.678356,0 -6.678346,0 0,2.22058 c 0,2.22057 0,2.22057 -2.226126,2.22057 l -2.226116,0 0,4.44111 0,4.4411 -2.226115,0 -2.226126,0 0,14.4336 0,14.4336 6.678357,0 6.678356,0 z m -8.904472,-12.2131 0,-12.213 2.226116,0 2.226126,0 0,-4.4411 0,-4.44111 6.678346,0 6.678356,0 0,4.44111 0,4.4411 2.226126,0 2.226116,0 0,12.213 0,12.2131 -2.226116,0 -2.226126,0 0,-4.4411 0,-4.4411 -6.678356,0 -6.678346,0 0,4.4411 0,4.4411 -2.226126,0 -2.226116,0 z m 15.582829,-7.7719 0,-4.4411 -4.452241,0 -4.452231,0 0,4.4411 0,4.4411 4.452231,0 4.452241,0 z m 28.939543,22.2055 c 0,-2.2205 0,-2.2205 2.22612,-2.2205 2.22612,0 2.22612,0 2.22612,2.2205 l 0,2.2206 22.26119,0 22.26118,0 0,-2.2206 c 0,-2.2205 0,-2.2205 2.22612,-2.2205 l 2.22612,0 0,-11.1028 0,-11.1027 -2.22612,0 c -1.8551,0 -2.22612,-0.1851 -2.22612,-1.1103 0,-1.0692 0.37102,-1.1103 10.01754,-1.1103 l 10.01753,0 0,-6.6617 0,-6.66166 -16.69589,0 -16.69589,0 0,2.22058 c 0,2.22057 0,2.22057 -2.22612,2.22057 l -2.22611,0 0,8.88221 0,8.8822 2.22611,0 c 2.22612,0 2.22612,0 2.22612,2.2206 l 0,2.2205 -12.24365,0 -12.24365,0 0,-2.2205 c 0,-2.2206 0,-2.2206 2.22611,-2.2206 l 2.22612,0 0,-8.8822 0,-8.88221 -2.22612,0 c -2.22611,0 -2.22611,0 -2.22611,-2.22057 l 0,-2.22058 -12.243662,0 -12.243652,0 0,21.09526 0,21.0953 6.678356,0 6.678358,0 z m -8.904473,-18.8747 0,-16.65411 10.017523,0 10.01755,0 0,8.88221 0,8.8822 -2.22613,0 c -2.22611,0 -2.22611,0 -2.22611,2.2206 0,2.2205 0,2.2205 2.22611,2.2205 2.22613,0 2.22613,0 2.22613,2.2206 l 0,2.2205 14.46977,0 14.46977,0 0,-4.4411 0,-4.4411 -2.22612,0 -2.22612,0 0,-8.8822 0,-8.88221 14.46977,0 14.46977,0 0,2.22051 0,2.2206 -10.01753,0 -10.01753,0 0,3.3308 0,3.3309 2.22612,0 2.22611,0 0,11.1027 0,11.1028 -22.26118,0 -22.26119,0 0,-2.2206 c 0,-2.2205 0,-2.2205 -2.22612,-2.2205 -2.22612,0 -2.22612,0 -2.22612,-2.2206 0,-2.2205 0,-2.2205 -2.226119,-2.2205 l -2.226116,0 0,4.4411 0,4.4411 -2.226123,0 -2.226115,0 z m 15.582833,-8.8822 0,-3.3308 -5.56531,0 -5.565285,0 0,3.3308 0,3.3309 5.565285,0 5.56531,0 z M 33.391783,988.10188 c 0,-1.85046 0.185501,-2.22055 1.113058,-2.22055 1.07184,0 1.113058,-0.37009 1.113058,-9.99258 l 0,-9.99249 -2.226116,0 c -2.226126,0 -2.226126,0 -2.226126,-2.22055 l 0,-2.22055 8.904472,0 8.904483,0 0,14.43359 0,14.43369 7.791414,0 7.791414,0 0,-14.43369 0,-14.43359 10.017541,0 10.017529,0 0,14.43359 0,14.43369 6.678357,0 6.678354,0 0,-4.44111 0,-4.44115 2.226119,0 2.22612,0 0,4.44115 0,4.44111 6.67835,0 6.67836,0 0,-14.43369 0,-14.43359 -2.22612,0 -2.22611,0 0,-3.33083 0,-3.33083 -2.22613,0 c -2.22611,0 -2.22611,0 -2.22611,-2.22057 l 0,-2.22054 -6.67836,0 -6.678358,0 0,2.22054 c 0,2.22057 0,2.22057 -2.226115,2.22057 l -2.226115,0 0,3.33083 0,3.33083 -2.226126,0 -2.226116,0 0,-6.66166 0,-6.66166 -33.391783,0 c -33.02076,0 -33.391772,0.0124 -33.391772,1.11027 0,0.74018 -0.371023,1.11028 -1.113069,1.11028 -1.075953,0 -1.113057,0.37009 -1.113057,11.10277 l 0,11.10276 2.226126,0 c 2.226115,0 2.226115,0 2.226115,2.22056 l 0,2.22055 -10.01754,0 -10.01753,0 0,6.66175 0,6.66166 16.695886,0 16.695897,0 z m -28.9395417,-4.4411 0,-2.2206 10.0175297,0 10.01753,0 0,-4.44115 0,-4.44111 -2.226116,0 -2.226115,0 0,-9.99249 0,-9.9925 31.165657,0 31.165668,0 0,2.22057 0,2.22055 -11.130598,0 -11.130587,0 0,14.4336 0,14.43368 -3.339184,0 -3.339173,0 0,-14.43368 0,-14.4336 -13.356724,0 -13.356702,0 0,4.44111 0,4.4411 2.226115,0 2.226115,0 0,9.99249 0,9.99258 -13.356702,0 -13.3567137,0 z m 84.5925107,-9.99258 0,-12.21304 2.226115,0 2.226115,0 0,-3.33083 0,-3.33083 6.678358,0 6.67836,0 0,3.33083 0,3.33083 2.22611,0 2.22613,0 0,12.21304 0,12.21313 -2.22613,0 -2.22611,0 0,-4.44115 0,-4.44115 -6.67836,0 -6.678358,0 0,4.44115 0,4.44115 -2.226115,0 -2.226115,0 z m 15.582828,-7.77194 0,-4.4411 -4.45224,0 -4.452235,0 0,4.4411 0,4.44111 4.452235,0 4.45224,0 z m 28.93954,22.20562 c 0,-2.22055 0,-2.22055 2.22612,-2.22055 2.22612,0 2.22612,0 2.22612,2.22055 l 0,2.22056 15.58283,0 15.58283,0 0,-6.66166 0,-6.66175 -13.35671,0 -13.35672,0 0,-2.22055 c 0,-2.22056 0,-2.22056 2.22613,-2.22056 l 2.22612,0 0,-8.88221 0,-8.88221 -2.22612,0 c -2.22613,0 -2.22613,0 -2.22613,-2.22057 l 0,-2.22054 -11.13058,0 -11.1306,0 0,19.98498 0,19.98507 6.67836,0 6.67835,0 z m -8.90447,-17.76451 0,-15.54387 8.90447,0 8.90447,0 0,7.77193 0,7.77194 -2.22611,0 -2.22612,0 0,3.33083 0,3.33083 2.22612,0 c 2.22611,0 2.22611,0 2.22611,2.22055 l 0,2.2206 11.1306,0 11.13059,0 0,2.2206 0,2.22055 -13.35671,0 -13.35671,0 0,-2.22055 c 0,-2.2206 0,-2.2206 -2.22612,-2.2206 -1.85509,0 -2.22612,-0.18505 -2.22612,-1.11028 0,-0.92527 -0.37102,-1.11032 -2.22611,-1.11032 l -2.22613,0 0,3.33092 0,3.33083 -2.22611,0 -2.22612,0 z m 13.35671,-7.77194 0,-3.33083 -4.45224,0 -4.45224,0 0,3.33083 0,3.33083 4.45224,0 4.45224,0 z"
       id="path4697"
       inkscape:connector-curvature="0"
       sodipodi:nodetypes="ccccccccsscccccccccccccccccccccccccccccccssccccccccccccsscccccccccccccccsssccccccccccccccccccccccccccccccccsscccssccccccccccccccccccccccccccccccccccccccccccccssscccsscccssscccccsscccsscccsscccsscccccccsccccccsssscccccccccccccccccccccccsssscccccccccccccccssscsscccccccccccccccccccccccccccccsscccsscccccccsssscsscccccccscccccccccccccccccccccccccccccccccccccccccccccccccccccccccccccccccccssscccccccsscccsscccccccsccccccccccsscccccccssssccccccccccccccc" />
    <g
       transform="matrix(1.0241494,0,0,1.0917433,0,-59.787925)"
       style="font-style:normal;font-weight:normal;font-size:36.74652863px;line-height:125%;font-family:sans-serif;letter-spacing:0px;word-spacing:0px;fill:#ffff00;fill-opacity:1;stroke:none;stroke-width:1px;stroke-linecap:butt;stroke-linejoin:miter;stroke-opacity:1"
       id="text4134">
      <path
         d="m 0,1018.5853 0,-8.3994 q 0.01682122,-0.1009 0.10092736,-0.1009 l 1.11580804,0 q 0.1009273,0.017 0.09532,0.1009 l 0,1.1158 1.115808,0 q 0.1009274,0.017 0.1009274,0.095 l 0,1.1158 1.115808,0 0,-1.1158 q 0.016821,-0.101 0.09532,-0.095 l 1.115808,0 0,-1.1158 q 0.016821,-0.1009 0.1009274,-0.1009 l 1.115808,0 q 0.1009273,0.017 0.09532,0.1009 l 0,8.3994 q 0,0.101 -0.09532,0.095 l -1.115808,0 q -0.1009274,0 -0.1009274,-0.095 l 0,-5.9715 -1.115808,0 0,2.3269 q 0,0.101 -0.09532,0.101 l -1.115808,0 q -0.1009274,0 -0.1009274,-0.101 l 0,-2.3269 -1.115808,0 0,5.9715 q 0,0.101 -0.09532,0.095 l -1.11580804,0 Q 0,1018.6807 0,1018.5853 Z"
         style="font-style:normal;font-variant:normal;font-weight:normal;font-stretch:normal;font-size:11.48329067px;font-family:'LCD Solid';-inkscape-font-specification:'LCD Solid';fill:#ffff00"
         id="path4139"
         inkscape:connector-curvature="0" />
      <path
         d="m 8.2255799,1018.5517 0,-1.1158 q 0.016821,-0.1009 0.1009273,-0.1009 l 1.1158081,0 0,-3.5325 -1.1158081,0 q -0.1009273,0 -0.1009273,-0.1065 l 0,-1.1102 q 0.016821,-0.095 0.1009273,-0.095 l 2.3269368,0 q 0.100927,0.017 0.100927,0.095 l 0,4.7492 1.104594,0 q 0.106534,0.017 0.112141,0.1009 l 0,1.1158 q 0,0.1009 -0.112141,0.095 l -3.5324578,0 q -0.1009273,0 -0.1009273,-0.095 z m 1.2167354,-7.278 0,-1.1158 q 0.011214,-0.095 0.09532,-0.095 l 1.1158087,0 q 0.100927,0.017 0.100927,0.095 l 0,1.1158 q 0,0.1009 -0.100927,0.1009 l -1.1158087,0 q -0.1009273,0 -0.09532,-0.1009 z"
         style="font-style:normal;font-variant:normal;font-weight:normal;font-stretch:normal;font-size:11.48329067px;font-family:'LCD Solid';-inkscape-font-specification:'LCD Solid';fill:#ffff00"
         id="path4141"
         inkscape:connector-curvature="0" />
      <path
         d="m 15.234424,1018.5685 0,-1.1158 q 0.01682,-0.1009 0.09532,-0.1009 l 1.115808,0 0,-5.9603 -1.115808,0 q -0.100928,0 -0.09532,-0.101 l 0,-1.1158 q 0.01121,-0.095 0.09532,-0.095 l 2.332543,0 q 0.100927,0.017 0.09532,0.095 l 0,7.1771 1.110201,0 q 0.106535,0.017 0.106535,0.1009 l 0,1.1158 q 0,0.1009 -0.106535,0.095 l -3.538064,0 q -0.100928,0 -0.09532,-0.095 z"
         style="font-style:normal;font-variant:normal;font-weight:normal;font-stretch:normal;font-size:11.48329067px;font-family:'LCD Solid';-inkscape-font-specification:'LCD Solid';fill:#ffff00"
         id="path4143"
         inkscape:connector-curvature="0" />
      <path
         d="m 22.254484,1018.5685 0,-1.1158 q 0.01682,-0.1009 0.09532,-0.1009 l 1.115808,0 0,-5.9603 -1.115808,0 q -0.100927,0 -0.09532,-0.101 l 0,-1.1158 q 0.01121,-0.095 0.09532,-0.095 l 2.332544,0 q 0.100927,0.017 0.09532,0.095 l 0,7.1771 1.110201,0 q 0.106534,0.017 0.106534,0.1009 l 0,1.1158 q 0,0.1009 -0.106534,0.095 l -3.538065,0 q -0.100927,0 -0.09532,-0.095 z"
         style="font-style:normal;font-variant:normal;font-weight:normal;font-stretch:normal;font-size:11.48329067px;font-family:'LCD Solid';-inkscape-font-specification:'LCD Solid';fill:#ffff00"
         id="path4145"
         inkscape:connector-curvature="0" />
      <path
         d="m 28.097056,1017.3686 0,-3.5044 q 0.01682,-0.1009 0.100927,-0.095 l 1.104594,0 0,-1.1102 q 0.01121,-0.095 0.100927,-0.095 l 3.504423,0 q 0.100927,0.017 0.09532,0.095 l 0,1.1102 1.110201,0 q 0.100927,0.01 0.09532,0.095 l 0,2.3101 q 0,0.1009 -0.09532,0.095 l -4.709944,0 0,1.099 3.504423,0 q 0.100927,0.017 0.09532,0.1009 l 0,1.1046 q 0,0.101 -0.09532,0.101 l -3.504423,0 q -0.100927,0 -0.100927,-0.101 l 0,-1.1046 -1.104594,0 q -0.100927,0 -0.100927,-0.1009 z m 1.306448,-2.4054 3.504423,0 0,-1.099 -3.504423,0 0,1.099 z"
         style="font-style:normal;font-variant:normal;font-weight:normal;font-stretch:normal;font-size:11.48329067px;font-family:'LCD Solid';-inkscape-font-specification:'LCD Solid';fill:#ffff00"
         id="path4147"
         inkscape:connector-curvature="0" />
      <path
         d="m 35.111506,1018.5573 0,-5.9042 q 0.01121,-0.101 0.09532,-0.101 l 1.098986,0 q 0.106535,0.017 0.106535,0.101 l 0,1.0989 1.098987,0 0,-1.0989 q 0.01682,-0.101 0.100927,-0.101 l 2.298901,0 q 0.106534,0.017 0.106534,0.101 l 0,1.0989 1.098987,0 q 0.100928,0.017 0.09532,0.1066 l 0,4.6987 q 0,0.1009 -0.09532,0.1009 l -1.098987,0 q -0.106534,0 -0.106534,-0.1009 l 0,-4.6987 -2.298901,0 0,1.099 q 0,0.1009 -0.100927,0.1009 l -1.098987,0 0,3.4988 q 0,0.1009 -0.106535,0.1009 l -1.098986,0 q -0.100928,0 -0.09532,-0.1009 z"
         style="font-style:normal;font-variant:normal;font-weight:normal;font-stretch:normal;font-size:11.48329067px;font-family:'LCD Solid';-inkscape-font-specification:'LCD Solid';fill:#ffff00"
         id="path4149"
         inkscape:connector-curvature="0" />
      <path
         d="m 43.325875,1018.5517 0,-1.1158 q 0.01682,-0.1009 0.100927,-0.1009 l 1.115808,0 0,-3.5325 -1.115808,0 q -0.100927,0 -0.100927,-0.1065 l 0,-1.1102 q 0.01682,-0.095 0.100927,-0.095 l 2.326937,0 q 0.100927,0.017 0.100927,0.095 l 0,4.7492 1.104594,0 q 0.106534,0.017 0.112141,0.1009 l 0,1.1158 q 0,0.1009 -0.112141,0.095 l -3.532458,0 q -0.100927,0 -0.100927,-0.095 z m 1.216735,-7.278 0,-1.1158 q 0.01121,-0.095 0.09532,-0.095 l 1.115808,0 q 0.100927,0.017 0.100927,0.095 l 0,1.1158 q 0,0.1009 -0.100927,0.1009 l -1.115808,0 q -0.100928,0 -0.09532,-0.1009 z"
         style="font-style:normal;font-variant:normal;font-weight:normal;font-stretch:normal;font-size:11.48329067px;font-family:'LCD Solid';-inkscape-font-specification:'LCD Solid';fill:#ffff00"
         id="path4151"
         inkscape:connector-curvature="0" />
      <path
         d="m 49.140411,1017.363 0,-4.7043 q 0.01682,-0.095 0.100928,-0.095 l 1.098987,0 q 0.106534,0.017 0.106534,0.095 l 0,4.7043 2.298901,0 0,-1.099 q 0.01682,-0.1009 0.09532,-0.1009 l 1.098987,0 0,-3.5044 q 0.01682,-0.101 0.106534,-0.095 l 1.098987,0 q 0.100928,0.017 0.100928,0.095 l 0,5.9098 q 0,0.1009 -0.100928,0.095 l -1.098987,0 q -0.106534,0 -0.106534,-0.095 l 0,-1.099 -1.098987,0 0,1.099 q 0,0.1009 -0.09532,0.095 l -2.298901,0 q -0.106534,0 -0.106534,-0.095 l 0,-1.099 -1.098987,0 q -0.100928,0 -0.100928,-0.1065 z"
         style="font-style:normal;font-variant:normal;font-weight:normal;font-stretch:normal;font-size:11.48329067px;font-family:'LCD Solid';-inkscape-font-specification:'LCD Solid';fill:#ffff00"
         id="path4153"
         inkscape:connector-curvature="0" />
      <path
         d="m 56.17729,1018.5573 0,-5.9042 q 0.01682,-0.101 0.100928,-0.101 l 2.304508,0 q 0.100927,0.017 0.09532,0.101 l 0,1.0989 1.104594,0 0,-1.0989 q 0.01682,-0.101 0.09532,-0.101 l 1.098987,0 q 0.106534,0.017 0.106534,0.101 l 0,1.0989 1.098987,0 q 0.100928,0.017 0.100928,0.1066 l 0,4.6987 q 0,0.1009 -0.100928,0.1009 l -1.098987,0 q -0.106534,0 -0.106534,-0.1009 l 0,-4.6987 -1.098987,0 0,2.2989 q 0,0.1009 -0.09532,0.095 l -1.104594,0 q -0.100927,0 -0.09532,-0.095 l 0,-2.2989 -1.098987,0 0,4.6987 q 0,0.1009 -0.106535,0.1009 l -1.098986,0 q -0.100928,0 -0.100928,-0.1009 z"
         style="font-style:normal;font-variant:normal;font-weight:normal;font-stretch:normal;font-size:11.48329067px;font-family:'LCD Solid';-inkscape-font-specification:'LCD Solid';fill:#ffff00"
         id="path4155"
         inkscape:connector-curvature="0" />
      <path
         d="m 70.155728,1018.5685 0,-8.4106 q 0.01121,-0.095 0.09532,-0.095 l 5.971536,0 q 0.106534,0.017 0.106534,0.095 l 0,1.1158 q 0,0.1009 -0.106534,0.1009 l -4.754801,0 0,2.327 3.543672,0 q 0.106535,0.017 0.106535,0.1065 l 0,1.1102 q 0,0.1065 -0.106535,0.1065 l -3.543672,0 0,3.5437 q 0,0.1009 -0.100927,0.095 l -1.115808,0 q -0.100927,0 -0.09532,-0.095 z"
         style="font-style:normal;font-variant:normal;font-weight:normal;font-stretch:normal;font-size:11.48329067px;font-family:'LCD Solid';-inkscape-font-specification:'LCD Solid';fill:#ffff00"
         id="path4157"
         inkscape:connector-curvature="0" />
      <path
         d="m 77.248677,1017.3686 0,-1.1046 q 0.01682,-0.1009 0.09532,-0.1009 l 1.110201,0 0,-1.099 q 0.01682,-0.1009 0.09532,-0.1009 l 3.510029,0 0,-1.1046 -3.510029,0 q -0.100927,0 -0.09532,-0.101 l 0,-1.1045 q 0.01121,-0.101 0.09532,-0.101 l 3.510029,0 q 0.100928,0.017 0.100928,0.101 l 0,1.1045 1.110201,0 q 0.100927,0.017 0.09532,0.101 l 0,4.7155 q 0,0.101 -0.09532,0.101 l -4.721158,0 q -0.100927,0 -0.09532,-0.101 l 0,-1.1046 -1.110201,0 q -0.100928,0 -0.09532,-0.1009 z m 1.300842,0 3.510029,0 0,-1.1046 -3.510029,0 0,1.1046 z"
         style="font-style:normal;font-variant:normal;font-weight:normal;font-stretch:normal;font-size:11.48329067px;font-family:'LCD Solid';-inkscape-font-specification:'LCD Solid';fill:#ffff00"
         id="path4159"
         inkscape:connector-curvature="0" />
      <path
         d="m 85.435014,1018.5685 0,-1.1158 q 0.01682,-0.1009 0.09532,-0.1009 l 1.115808,0 0,-5.9603 -1.115808,0 q -0.100928,0 -0.09532,-0.101 l 0,-1.1158 q 0.01122,-0.095 0.09532,-0.095 l 2.332543,0 q 0.100928,0.017 0.09532,0.095 l 0,7.1771 1.110201,0 q 0.106535,0.017 0.106535,0.1009 l 0,1.1158 q 0,0.1009 -0.106535,0.095 l -3.538064,0 q -0.100928,0 -0.09532,-0.095 z"
         style="font-style:normal;font-variant:normal;font-weight:normal;font-stretch:normal;font-size:11.48329067px;font-family:'LCD Solid';-inkscape-font-specification:'LCD Solid';fill:#ffff00"
         id="path4161"
         inkscape:connector-curvature="0" />
      <path
         d="m 91.277586,1017.363 0,-3.5044 q 0.01682,-0.101 0.100928,-0.101 l 1.104594,0 0,-1.1045 q 0.01121,-0.101 0.100927,-0.101 l 3.504422,0 q 0.100927,0.017 0.09532,0.101 l 0,1.1045 q 0,0.101 -0.09532,0.101 l -3.504422,0 0,3.5044 3.504422,0 0,-1.099 q 0.01682,-0.1009 0.09532,-0.1009 l 1.110201,0 q 0.100928,0.017 0.09532,0.1009 l 0,1.099 q 0,0.1009 -0.09532,0.095 l -1.110201,0 0,1.1102 q 0,0.1009 -0.09532,0.095 l -3.504422,0 q -0.100927,0 -0.100927,-0.095 l 0,-1.1102 -1.104594,0 q -0.100928,0 -0.100928,-0.095 z"
         style="font-style:normal;font-variant:normal;font-weight:normal;font-stretch:normal;font-size:11.48329067px;font-family:'LCD Solid';-inkscape-font-specification:'LCD Solid';fill:#ffff00"
         id="path4163"
         inkscape:connector-curvature="0" />
      <path
         d="m 98.308858,1017.363 0,-3.4988 q 0.01682,-0.1066 0.09532,-0.1066 l 1.098987,0 0,-1.0989 q 0.01682,-0.095 0.106535,-0.095 l 3.49881,0 q 0.10654,0.017 0.10654,0.095 l 0,1.0989 1.09899,0 q 0.10092,0.017 0.0953,0.1066 l 0,3.4988 q 0,0.1065 -0.0953,0.1065 l -1.09899,0 0,1.099 q 0,0.1009 -0.10654,0.095 l -3.49881,0 q -0.106535,0 -0.106535,-0.095 l 0,-1.099 -1.098987,0 q -0.100927,0 -0.09532,-0.1065 z m 1.300842,0 3.49881,0 0,-3.4988 -3.49881,0 0,3.4988 z"
         style="font-style:normal;font-variant:normal;font-weight:normal;font-stretch:normal;font-size:11.48329067px;font-family:'LCD Solid';-inkscape-font-specification:'LCD Solid';fill:#ffff00"
         id="path4165"
         inkscape:connector-curvature="0" />
      <path
         d="m 105.31209,1018.5573 0,-5.9042 q 0.0112,-0.101 0.0953,-0.101 l 1.09899,0 q 0.10654,0.017 0.10654,0.101 l 0,1.0989 1.09898,0 0,-1.0989 q 0.0168,-0.101 0.10093,-0.101 l 2.2989,0 q 0.10654,0.017 0.10654,0.101 l 0,1.0989 1.09898,0 q 0.10093,0.017 0.0953,0.1066 l 0,4.6987 q 0,0.1009 -0.0953,0.1009 l -1.09898,0 q -0.10654,0 -0.10654,-0.1009 l 0,-4.6987 -2.2989,0 0,1.099 q 0,0.1009 -0.10093,0.1009 l -1.09898,0 0,3.4988 q 0,0.1009 -0.10654,0.1009 l -1.09899,0 q -0.10092,0 -0.0953,-0.1009 z"
         style="font-style:normal;font-variant:normal;font-weight:normal;font-stretch:normal;font-size:11.48329067px;font-family:'LCD Solid';-inkscape-font-specification:'LCD Solid';fill:#ffff00"
         id="path4167"
         inkscape:connector-curvature="0" />
      <path
         d="m 119.36903,1017.3686 0,-1.1046 q 0.0168,-0.1009 0.0953,-0.1009 l 1.1102,0 0,-1.099 q 0.0168,-0.1009 0.0953,-0.1009 l 3.51003,0 0,-1.1046 -3.51003,0 q -0.10092,0 -0.0953,-0.101 l 0,-1.1045 q 0.0112,-0.101 0.0953,-0.101 l 3.51003,0 q 0.10093,0.017 0.10093,0.101 l 0,1.1045 1.1102,0 q 0.10093,0.017 0.0953,0.101 l 0,4.7155 q 0,0.101 -0.0953,0.101 l -4.72116,0 q -0.10092,0 -0.0953,-0.101 l 0,-1.1046 -1.1102,0 q -0.10093,0 -0.0953,-0.1009 z m 1.30084,0 3.51003,0 0,-1.1046 -3.51003,0 0,1.1046 z"
         style="font-style:normal;font-variant:normal;font-weight:normal;font-stretch:normal;font-size:11.48329067px;font-family:'LCD Solid';-inkscape-font-specification:'LCD Solid';fill:#ffff00"
         id="path4169"
         inkscape:connector-curvature="0" />
      <path
         d="m 126.36105,1013.7016 0,-1.1046 q 0.0168,-0.1066 0.10093,-0.1066 l 1.11581,0 0,-2.3325 q 0.0112,-0.095 0.0953,-0.095 l 1.11581,0 q 0.10653,0.017 0.10653,0.095 l 0,2.3325 1.1102,0 q 0.10654,0.017 0.10654,0.1066 l 0,1.1046 q 0,0.1065 -0.10654,0.1065 l -1.1102,0 0,3.5437 2.32133,0 0,-1.1158 q 0.0168,-0.1066 0.10654,-0.1066 l 1.1102,0 q 0.10653,0.017 0.10653,0.1066 l 0,1.1158 q 0,0.1009 -0.10653,0.1009 l -1.1102,0 0,1.1158 q 0,0.1009 -0.10654,0.095 l -2.32133,0 q -0.10653,0 -0.10653,-0.095 l 0,-1.1158 -1.11581,0 q -0.10093,0 -0.0953,-0.1009 l 0,-3.5437 -1.11581,0 q -0.10093,0 -0.10093,-0.1065 z"
         style="font-style:normal;font-variant:normal;font-weight:normal;font-stretch:normal;font-size:11.48329067px;font-family:'LCD Solid';-inkscape-font-specification:'LCD Solid';fill:#ffff00"
         id="path4171"
         inkscape:connector-curvature="0" />
      <path
         d="m 133.38112,1013.7016 0,-1.1046 q 0.0168,-0.1066 0.10093,-0.1066 l 1.1158,0 0,-2.3325 q 0.0112,-0.095 0.0953,-0.095 l 1.11581,0 q 0.10654,0.017 0.10654,0.095 l 0,2.3325 1.1102,0 q 0.10653,0.017 0.10653,0.1066 l 0,1.1046 q 0,0.1065 -0.10653,0.1065 l -1.1102,0 0,3.5437 2.32133,0 0,-1.1158 q 0.0168,-0.1066 0.10653,-0.1066 l 1.1102,0 q 0.10654,0.017 0.10654,0.1066 l 0,1.1158 q 0,0.1009 -0.10654,0.1009 l -1.1102,0 0,1.1158 q 0,0.1009 -0.10653,0.095 l -2.32133,0 q -0.10654,0 -0.10654,-0.095 l 0,-1.1158 -1.11581,0 q -0.10092,0 -0.0953,-0.1009 l 0,-3.5437 -1.1158,0 q -0.10093,0 -0.10093,-0.1065 z"
         style="font-style:normal;font-variant:normal;font-weight:normal;font-stretch:normal;font-size:11.48329067px;font-family:'LCD Solid';-inkscape-font-specification:'LCD Solid';fill:#ffff00"
         id="path4173"
         inkscape:connector-curvature="0" />
      <path
         d="m 140.4292,1017.3686 0,-1.1046 q 0.0168,-0.1009 0.0953,-0.1009 l 1.11021,0 0,-1.099 q 0.0168,-0.1009 0.0953,-0.1009 l 3.51002,0 0,-1.1046 -3.51002,0 q -0.10093,0 -0.0953,-0.101 l 0,-1.1045 q 0.0112,-0.101 0.0953,-0.101 l 3.51002,0 q 0.10093,0.017 0.10093,0.101 l 0,1.1045 1.1102,0 q 0.10093,0.017 0.0953,0.101 l 0,4.7155 q 0,0.101 -0.0953,0.101 l -4.72115,0 q -0.10093,0 -0.0953,-0.101 l 0,-1.1046 -1.11021,0 q -0.10092,0 -0.0953,-0.1009 z m 1.30085,0 3.51002,0 0,-1.1046 -3.51002,0 0,1.1046 z"
         style="font-style:normal;font-variant:normal;font-weight:normal;font-stretch:normal;font-size:11.48329067px;font-family:'LCD Solid';-inkscape-font-specification:'LCD Solid';fill:#ffff00"
         id="path4175"
         inkscape:connector-curvature="0" />
      <path
         d="m 147.43806,1017.363 0,-3.5044 q 0.0168,-0.101 0.10092,-0.101 l 1.1046,0 0,-1.1045 q 0.0112,-0.101 0.10092,-0.101 l 3.50443,0 q 0.10092,0.017 0.0953,0.101 l 0,1.1045 q 0,0.101 -0.0953,0.101 l -3.50443,0 0,3.5044 3.50443,0 0,-1.099 q 0.0168,-0.1009 0.0953,-0.1009 l 1.1102,0 q 0.10092,0.017 0.0953,0.1009 l 0,1.099 q 0,0.1009 -0.0953,0.095 l -1.1102,0 0,1.1102 q 0,0.1009 -0.0953,0.095 l -3.50443,0 q -0.10092,0 -0.10092,-0.095 l 0,-1.1102 -1.1046,0 q -0.10092,0 -0.10092,-0.095 z"
         style="font-style:normal;font-variant:normal;font-weight:normal;font-stretch:normal;font-size:11.48329067px;font-family:'LCD Solid';-inkscape-font-specification:'LCD Solid';fill:#ffff00"
         id="path4177"
         inkscape:connector-curvature="0" />
      <path
         d="m 154.41886,1018.5685 0,-8.3826 q 0.0168,-0.1009 0.10092,-0.1009 l 1.11581,0 q 0.10093,0.017 0.0953,0.1009 l 0,4.7492 1.1102,0 0,-1.1158 q 0.0168,-0.1009 0.10654,-0.1009 l 1.10459,0 0,-1.1046 q 0.0168,-0.1065 0.10093,-0.1065 l 1.11581,0 q 0.10092,0.017 0.0953,0.1065 l 0,1.1046 q 0,0.1009 -0.0953,0.1009 l -1.11581,0 0,1.1158 q 0,0.101 -0.10093,0.095 l -1.10459,0 0,1.1102 1.10459,0 q 0.10093,0.017 0.10093,0.1065 l 0,1.1046 1.11581,0 q 0.10092,0.017 0.0953,0.1009 l 0,1.1158 q 0,0.1009 -0.0953,0.095 l -1.11581,0 q -0.10093,0 -0.10093,-0.095 l 0,-1.1158 -1.10459,0 q -0.10654,0 -0.10654,-0.1009 l 0,-1.1046 -1.1102,0 0,2.3213 q 0,0.1009 -0.0953,0.095 l -1.11581,0 q -0.10092,0 -0.10092,-0.095 z"
         style="font-style:normal;font-variant:normal;font-weight:normal;font-stretch:normal;font-size:11.48329067px;font-family:'LCD Solid';-inkscape-font-specification:'LCD Solid';fill:#ffff00"
         id="path4179"
         inkscape:connector-curvature="0" />
      <path
         d="m 163.87239,1018.5909 0,-1.1158 q 0.0168,-0.1065 0.10093,-0.1065 l 1.11581,0 q 0.10653,0.017 0.10653,0.1065 l 0,1.1158 q 0,0.101 -0.10653,0.101 l -1.11581,0 q -0.10093,0 -0.10093,-0.101 z m 0,-3.6502 0,-4.766 q 0.0168,-0.095 0.10093,-0.095 l 1.11581,0 q 0.10653,0.017 0.10653,0.095 l 0,4.766 q 0,0.101 -0.10653,0.101 l -1.11581,0 q -0.10093,0 -0.10093,-0.101 z"
         style="font-style:normal;font-variant:normal;font-weight:normal;font-stretch:normal;font-size:11.48329067px;font-family:'LCD Solid';-inkscape-font-specification:'LCD Solid';fill:#ffff00"
         id="path4181"
         inkscape:connector-curvature="0" />
    </g>
  </g>
</svg>
