<?xml version="1.0" encoding="UTF-8" standalone="no"?>
<!-- Created with Inkscape (http://www.inkscape.org/) -->

<svg
   xmlns:dc="http://purl.org/dc/elements/1.1/"
   xmlns:cc="http://creativecommons.org/ns#"
   xmlns:rdf="http://www.w3.org/1999/02/22-rdf-syntax-ns#"
   xmlns:svg="http://www.w3.org/2000/svg"
   xmlns="http://www.w3.org/2000/svg"
   xmlns:sodipodi="http://sodipodi.sourceforge.net/DTD/sodipodi-0.dtd"
   xmlns:inkscape="http://www.inkscape.org/namespaces/inkscape"
   width="200"
   height="190"
   viewBox="0 0 200 190"
   id="svg2"
   version="1.1"
   inkscape:version="0.91 r13725"
   sodipodi:docname="button.svg">
  <defs
     id="defs4" />
  <sodipodi:namedview
     id="base"
     pagecolor="#ffffff"
     bordercolor="#666666"
     borderopacity="1.0"
     inkscape:pageopacity="0.0"
     inkscape:pageshadow="2"
     inkscape:zoom="2.2645336"
     inkscape:cx="98.224373"
     inkscape:cy="104.92911"
     inkscape:document-units="px"
     inkscape:current-layer="layer1"
     showgrid="false"
     inkscape:window-width="1366"
     inkscape:window-height="706"
     inkscape:window-x="-8"
     inkscape:window-y="-8"
     inkscape:window-maximized="1"
     units="px" />
  <metadata
     id="metadata7">
    <rdf:RDF>
      <cc:Work
         rdf:about="">
        <dc:format>image/svg+xml</dc:format>
        <dc:type
           rdf:resource="http://purl.org/dc/dcmitype/StillImage" />
        <dc:title></dc:title>
      </cc:Work>
    </rdf:RDF>
  </metadata>
  <g
     inkscape:label="Layer 1"
     inkscape:groupmode="layer"
     id="layer1"
     transform="translate(0,-862.36216)">
    <rect
       style="fill:#ffff00;stroke:none"
       id="rect3389"
       width="179.7939"
       height="169.72206"
       x="9.9858303"
       y="870.88171" />
    <path
       style="fill:#000000;stroke:none"
       d="m 15.148398,862.39096 0,7.14291 -7.9095105,0 0,7.5762 -6.93485002,0 0,159.11313 6.93485002,0 0,9.0248 7.9095105,0 0,7.1429 171.238562,0 0,-7.1429 6.93801,0 0,-9.0248 6.97907,0 0,-159.11313 -6.97907,0 0,-7.5762 -6.93801,0 0,-7.14291 -171.238562,0 z m 7.9111,14.76276 154.444862,0 0,8.57214 8.37552,0 0,143.33014 -8.37552,0 0,8.5722 -154.444862,0 0,-8.5722 -8.33129,0 0,-143.33014 8.33129,0 0,-8.57214 z"
       id="rect3349"
       inkscape:connector-curvature="0" />
    <path
       style="fill:#ff4500;fill-rule:evenodd;stroke:none;stroke-width:1px;stroke-linecap:butt;stroke-linejoin:miter;stroke-opacity:1"
       d="m 51.119388,907.4312 16.07472,0 94.479992,48.34891 0,3.02181 -104.977772,52.37798 -6.56111,-6.7151 z"
       id="path3374"
       inkscape:connector-curvature="0" />
    <path
       style="fill:#000000;stroke:none"
       d="m 51.775128,899.54119 0,6.66434 -7.77682,0 0,100.48727 8.10539,0 0,7.0055 15.25509,0 0,-7.8898 14.9265,0 0,-7.55519 15.090802,0 0,-7.5536 14.59793,0 0,-7.38702 14.9265,0 0,-7.38704 14.9265,0 0,-7.88985 -15.25508,0 0,7.38703 -14.9265,0 0,7.38543 -14.9265,0 0,7.55515 -14.597932,0 0,7.5552 -15.09079,0 0,7.88989 -14.65481,0 0,-98.37746 14.32623,0 0,7.88985 15.09079,0 0,7.55518 14.597932,0 0,7.55518 14.92651,0 0,7.38543 14.92649,0 0,7.38704 15.25509,0 0,-7.88985 -14.92651,0 0,-7.38704 -14.9265,0 0,-7.38705 -14.59793,0 0,-7.55356 -15.090802,0 0,-7.55518 -14.92649,0 0,-7.88986 -15.25509,0 z m 89.394742,45.83067 0,7.88986 14.92651,0 0,6.71607 -14.59793,0 0,7.88986 15.25508,0 0,-7.21889 6.56046,0 0,-7.88986 -6.88904,0 0,-7.38704 -15.25508,0 z"
       id="rect3355"
       inkscape:connector-curvature="0" />
    <path
       style="fill:#ffffff;stroke:none"
       d="m 122.88036,953.59915 0,5.8792 -11.8797,0 0,5.87789 -11.879708,0 0,6.01304 -11.618214,0 0,6.01301 -12.01046,0 0,6.27938 -11.66346,0 0,-0.0205 -0.53307,0.72445 0.31682,0 0,5.57549 12.14122,0 0,-6.27935 11.87971,0 0,-6.01302 12.010464,0 0,-6.01173 11.618208,0 0,-5.8792 11.8797,0 0,-5.8792 11.87971,0 0,-6.27937 z"
       id="path3391"
       inkscape:connector-curvature="0"
       sodipodi:nodetypes="cccccccccccccccccccccccccccc" />
  </g>
</svg>
