<?xml version="1.0" encoding="UTF-8" standalone="no"?>
<!-- Created with Inkscape (http://www.inkscape.org/) -->

<svg
   xmlns:dc="http://purl.org/dc/elements/1.1/"
   xmlns:cc="http://creativecommons.org/ns#"
   xmlns:rdf="http://www.w3.org/1999/02/22-rdf-syntax-ns#"
   xmlns:svg="http://www.w3.org/2000/svg"
   xmlns="http://www.w3.org/2000/svg"
   xmlns:sodipodi="http://sodipodi.sourceforge.net/DTD/sodipodi-0.dtd"
   xmlns:inkscape="http://www.inkscape.org/namespaces/inkscape"
   width="130"
   height="124"
   viewBox="0 0 130 124"
   id="svg2"
   version="1.1"
   inkscape:version="0.91 r13725"
   sodipodi:docname="start.svg">
  <defs
     id="defs4" />
  <sodipodi:namedview
     id="base"
     pagecolor="#ffffff"
     bordercolor="#666666"
     borderopacity="1.0"
     inkscape:pageopacity="0.0"
     inkscape:pageshadow="2"
     inkscape:zoom="1.6012671"
     inkscape:cx="-57.30079"
     inkscape:cy="67.462659"
     inkscape:document-units="px"
     inkscape:current-layer="layer1"
     showgrid="false"
     inkscape:window-width="1366"
     inkscape:window-height="705"
     inkscape:window-x="-8"
     inkscape:window-y="-8"
     inkscape:window-maximized="1"
     units="px" />
  <metadata
     id="metadata7">
    <rdf:RDF>
      <cc:Work
         rdf:about="">
        <dc:format>image/svg+xml</dc:format>
        <dc:type
           rdf:resource="http://purl.org/dc/dcmitype/StillImage" />
        <dc:title />
      </cc:Work>
    </rdf:RDF>
  </metadata>
  <g
     inkscape:label="Layer 1"
     inkscape:groupmode="layer"
     id="layer1"
     transform="translate(0,-928.36216)">
    <rect
       style="fill:#ffff00;stroke:none"
       id="rect3389"
       width="116.86604"
       height="110.76603"
       x="6.2931652"
       y="933.9035" />
    <path
       style="fill:#000000;stroke:#ffffff"
       d="m 9.6488344,928.36216 0,4.66169 -5.1411819,0 0,4.94446 -4.5076525,0 0,103.84229 4.5076525,0 0,5.8899 5.1411819,0 0,4.6617 111.3050656,0 0,-4.6617 4.50971,0 0,-5.8899 4.53639,0 0,-103.84229 -4.53639,0 0,-4.94446 -4.50971,0 0,-4.66169 -111.3050656,0 z m 5.1422156,9.63465 100.38916,0 0,5.59444 5.44409,0 0,93.54185 -5.44409,0 0,5.5945 -100.38916,0 0,-5.5945 -5.4153391,0 0,-93.54185 5.4153391,0 0,-5.59444 z"
       id="rect3349"
       inkscape:connector-curvature="0" />
    <path
       style="fill:#ff4500;fill-rule:evenodd;stroke:none;stroke-width:1px;stroke-linecap:butt;stroke-linejoin:miter;stroke-opacity:1"
       d="m 33.029978,957.75686 10.448569,0 61.411993,31.55403 0,1.97213 -68.23555,34.18358 -4.264722,-4.3825 z"
       id="path3374"
       inkscape:connector-curvature="0" />
    <path
       style="fill:#000000;stroke:none"
       d="m 33.45621,952.60758 0,4.34936 -5.054933,0 0,65.58116 5.268503,0 0,4.572 9.915808,0 0,-5.1491 9.702226,0 0,-4.9307 9.809021,0 0,-4.9298 9.488654,0 0,-4.8209 9.702226,0 0,-4.8211 9.702225,0 0,-5.14917 -9.915802,0 0,4.82097 -9.702225,0 0,4.82 -9.702226,0 0,4.9309 -9.488655,0 0,4.9306 -9.809014,0 0,5.1492 -9.525627,0 0,-64.20425 9.31205,0 0,5.14916 9.809014,0 0,4.93076 9.488656,0 0,4.93074 9.702231,0 0,4.81997 9.702218,0 0,4.82101 9.915809,0 0,-5.14915 -9.702231,0 0,-4.82103 -9.702225,0 0,-4.82102 -9.488655,0 0,-4.9297 -9.809021,0 0,-4.93074 -9.702219,0 0,-5.14918 -9.915808,0 z m 58.106583,29.91055 0,5.14917 9.702227,0 0,4.38312 -9.488651,0 0,5.14918 9.915801,0 0,-4.71128 4.2643,0 0,-5.14917 -4.47788,0 0,-4.82102 -9.915797,0 z"
       id="rect3355"
       inkscape:connector-curvature="0" />
    <path
       style="fill:#ffffff;stroke:none"
       d="m 79.674611,987.88753 0,3.83694 -7.721805,0 0,3.8361 -7.72181,0 0,3.9243 -7.55184,0 0,3.92433 -7.806799,0 0,4.0981 -7.581249,0 0,-0.013 -0.346495,0.4728 0.205933,0 0,3.6388 7.891792,0 0,-4.0982 7.721812,0 0,-3.9242 7.806802,0 0,-3.9235 7.551835,0 0,-3.83695 7.721805,0 0,-3.83696 7.721812,0 0,-4.09811 z"
       id="path3391"
       inkscape:connector-curvature="0"
       sodipodi:nodetypes="cccccccccccccccccccccccccccc" />
  </g>
</svg>
